<svg width="50" height="50" viewBox="0 0 50 50" fill="none" xmlns="http://www.w3.org/2000/svg">
<rect width="49.9295" height="50" rx="16" fill="#BAFE35"/>
<path fill-rule="evenodd" clip-rule="evenodd" d="M24.9648 35C30.4877 35 34.9648 30.5228 34.9648 25C34.9648 19.4772 30.4877 15 24.9648 15C19.442 15 14.9648 19.4772 14.9648 25C14.9648 30.5228 19.442 35 24.9648 35ZM25.7148 19C25.7148 18.5858 25.3791 18.25 24.9648 18.25C24.5506 18.25 24.2148 18.5858 24.2148 19V19.3167C22.5844 19.6087 21.2148 20.8336 21.2148 22.5C21.2148 24.4172 23.0276 25.75 24.9648 25.75C26.3413 25.75 27.2148 26.6557 27.2148 27.5C27.2148 28.3443 26.3413 29.25 24.9648 29.25C23.5884 29.25 22.7148 28.3443 22.7148 27.5C22.7148 27.0858 22.3791 26.75 21.9648 26.75C21.5506 26.75 21.2148 27.0858 21.2148 27.5C21.2148 29.1664 22.5844 30.3913 24.2148 30.6833V31C24.2148 31.4142 24.5506 31.75 24.9648 31.75C25.3791 31.75 25.7148 31.4142 25.7148 31V30.6833C27.3453 30.3913 28.7148 29.1664 28.7148 27.5C28.7148 25.5828 26.9021 24.25 24.9648 24.25C23.5884 24.25 22.7148 23.3443 22.7148 22.5C22.7148 21.6557 23.5884 20.75 24.9648 20.75C26.3413 20.75 27.2148 21.6557 27.2148 22.5C27.2148 22.9142 27.5506 23.25 27.9648 23.25C28.3791 23.25 28.7148 22.9142 28.7148 22.5C28.7148 20.8336 27.3453 19.6087 25.7148 19.3167V19Z" fill="black"/>
</svg>
